<?xml version="1.0" encoding="UTF-8"?>
<svg id="Capa_1" xmlns="http://www.w3.org/2000/svg" version="1.1" viewBox="0 0 1125.2 173.4">
  <!-- Generator: Adobe Illustrator 30.3.0, SVG Export Plug-In . SVG Version: 2.1.3 Build 182)  -->
  <defs>
    <style>
      .st0 {
        fill: #fff;
      }

      .st1 {
        fill: #55b04d;
      }

      .st2 {
        fill: #1b203e;
      }
    </style>
  </defs>
  <rect class="st2" x="417" y="8.2" width="233" height="152.7"/>
  <polygon class="st0" points="1026.6 160.9 481.9 160.9 574.1 8.2 1120 8.2 1026.6 160.9"/>
  <polygon class="st2" points="490.4 156.1 1024.2 156.1 1111.5 12.9 576.8 12.9 490.4 156.1"/>
  <polygon class="st0" points="469.4 160.9 6.4 160.9 6.4 8.2 563 8.2 469.4 160.9"/>
  <polygon class="st2" points="11.2 156 466.8 156 554.5 13 11.2 13 11.2 156"/>
  <polygon class="st0" points="232.8 94.9 251.2 94.9 251.2 107.5 270.9 107.5 270.9 60.9 249 60.9 256.4 40.7 292.3 40.7 292.3 128.3 232.8 128.3 232.8 94.9"/>
  <polygon class="st0" points="300.6 128.3 321 128.3 321 69.4 340.2 122.6 363.3 122.6 384.3 69.4 384.3 128.3 405.7 128.3 405.7 40.7 374.5 40.7 354.1 99.2 332.4 40.7 300.6 40.7 300.6 128.3"/>
  <polygon class="st0" points="413.6 60.6 442.4 60.6 442.4 128.3 465.6 128.3 465.6 60.6 483.3 60.6 490.4 40.7 413.6 40.7 413.6 60.6"/>
  <path class="st1" d="M160.5,119.3c-11.1-3.2-18.3-12-38.4-38.3-20.1-26.3-32.7-37.9-49.3-39.2-14-1.1-26.6,2.9-36.2,13.7,9.2-5.7,17.8-8.5,31.2-4.6,11.1,3.2,21.4,15.6,38.3,38.1,16.8,22.6,32.8,38,49.4,39.3,14,1.1,26.6-2.9,36.2-13.7-9.2,5.7-17.8,8.5-31.2,4.6Z"/>
  <path class="st1" d="M80.4,62.4c-14.5-14.5-27.8-11.7-36.6-8-8.8,3.6-22,16.8-18,39,4.1,22.9,23.3,33,35.3,34.7,12,1.7,24.4-1,36.8-11.7-12.9,7.5-32.4,5.7-43.4-4.8-11.2-10.7-15.4-25.5-9.6-38,6.7-14.3,24.5-17.8,35.4-11.2Z"/>
  <path class="st1" d="M147.7,107.7c14.5,14.5,27.8,11.7,36.6,8,8.8-3.6,22-16.8,18-39-4.1-22.9-23.3-33-35.3-34.7-12-1.7-24.4,1-36.8,11.7,12.9-7.5,32.4-5.7,43.4,4.8,11.2,10.7,15.4,25.5,9.6,38-6.7,14.3-24.5,17.8-35.4,11.2Z"/>
  <path class="st1" d="M101.1,87.2c-8.5,10.3-16.2,18.5-23.4,21.7-7.3,3.3-14.8,3.2-24.2-2.3,6.6,7.5,16.6,12.4,29,11.5,12.3-1,20.6-6.8,29.6-16.8l-11-14.1Z"/>
  <path class="st1" d="M145.6,52c-12.2,1-20.6,6.8-29.6,16.7l11,14.1c8.5-10.3,16.1-18.4,23.3-21.6,7.3-3.3,14.8-3.2,24.2,2.3-6.6-7.5-16.6-12.4-29-11.5Z"/>
  <polygon class="st0" points="889.6 59.8 917.4 59.8 917.4 125.3 939.9 125.3 939.9 59.8 957 59.8 963.8 40.6 889.6 40.6 889.6 59.8"/>
  <rect class="st0" x="572.3" y="40.6" width="22.5" height="84.7"/>
  <rect class="st0" x="751.1" y="40.6" width="22.5" height="84.7"/>
  <rect class="st0" x="863.9" y="40.6" width="22.5" height="84.7"/>
  <polygon class="st0" points="601.7 125.3 622.1 125.3 622.1 76.2 662.6 125.3 680.2 125.3 680.2 40.6 659.1 40.6 659.1 88 621.8 40.6 601.7 40.6 601.7 125.3"/>
  <polygon class="st0" points="780.5 125.3 800.9 125.3 800.9 76.2 841.4 125.3 859 125.3 859 40.6 837.8 40.6 837.8 88 800.6 40.6 780.5 40.6 780.5 125.3"/>
  <polygon class="st0" points="708.9 74.7 708.9 59.6 741.2 59.6 749 40.6 686.7 40.6 686.7 125.3 708.9 125.3 708.9 94.1 727 94.1 734.9 74.7 708.9 74.7"/>
  <polygon class="st0" points="989.6 106.3 989.6 91.4 1021.5 91.4 1021.5 73.7 989.6 73.7 989.6 59.6 1030.5 59.6 1030.5 40.6 967.4 40.6 967.4 125.3 1033 125.3 1033 106.3 989.6 106.3"/>
  <path class="st0" d="M1053.5,40.6c.2,0,.4,0,.6,0,2.1.2,3.8,1.1,5.4,2.4.7.7,1.4,1.4,1.9,2.2.6.9,1,1.8,1.2,2.8.3,1.3.4,2.7.2,4.1-.2,1.5-.7,2.9-1.6,4.2-1,1.5-2.4,2.7-4,3.5-1.2.6-2.4.9-3.7,1-1,0-1.9,0-2.9-.2-1.3-.3-2.5-.7-3.5-1.5-1.4-1-2.6-2.2-3.4-3.7-.7-1.2-1.1-2.6-1.1-4,0-.7,0-1.5,0-2.2.2-1.5.7-2.9,1.5-4.1,1.3-1.9,2.9-3.3,5.1-4,.9-.3,1.7-.5,2.7-.5,0,0,0,0,.1,0,.5,0,.9,0,1.4,0ZM1052.8,59.8c4.8.1,9.1-4.1,9-9.2-.1-4.6-4.1-8.9-9.3-8.8-4.6.2-8.7,4.1-8.7,9.2,0,4.7,4.1,8.9,9,8.8Z"/>
  <path class="st0" d="M1053.8,51.4c.2.1.4.2.6.4.5.3.8.8,1.1,1.3.4.8.8,1.6,1.2,2.4.3.6.6,1.1.9,1.8-.4,0-.7,0-1.1,0-.3,0-.7,0-1,0-.1,0-.2,0-.2-.2-.5-1.1-1-2.2-1.5-3.3-.3-.6-.6-1.2-1.2-1.6-.3-.2-.6-.4-1-.4-.4,0-.7,0-1.1,0v5.4h-1.8v-12.9s0,0,.1,0c1.3,0,2.5,0,3.8,0,.8,0,1.7.2,2.4.5,1.4.6,2.1,1.9,2,3.4-.2,1.4-.9,2.3-2.2,2.8-.3.1-.6.2-1,.3,0,0,0,0-.1,0ZM1050.5,45.9v4.4c.4,0,.7,0,1.1,0,.6,0,1.2,0,1.8-.1.8-.1,1.3-.6,1.6-1.3.1-.4.1-.8,0-1.3,0-.6-.4-1.1-1-1.4-.3-.1-.6-.2-1-.3-.8,0-1.7,0-2.5,0,0,0,0,0,0,0Z"/>
</svg>